<svg xmlns="http://www.w3.org/2000/svg" xmlns:xlink="http://www.w3.org/1999/xlink" viewBox="0 0 47.64 41.17"><defs><style>.cls-1,.cls-2,.cls-3,.cls-4,.cls-5{stroke:#fff;stroke-miterlimit:10;stroke-width:0.25px;}.cls-1{fill:url(#Новый_образец_градиента_1);}.cls-2{fill:url(#Безымянный_градиент_400);}.cls-3{fill:url(#Безымянный_градиент_534);}.cls-4{fill:#8dd0f2;}.cls-5{fill:#e67817;}</style><radialGradient id="Новый_образец_градиента_1" cx="51.44" cy="17.79" r="53.99" gradientUnits="userSpaceOnUse"><stop offset="0.01" stop-color="#7767aa"/><stop offset="0.52" stop-color="#7565a9"/><stop offset="0.56" stop-color="#594894"/><stop offset="0.6" stop-color="#443284"/><stop offset="0.64" stop-color="#352278"/><stop offset="0.69" stop-color="#2c1971"/><stop offset="0.76" stop-color="#29166f"/></radialGradient><radialGradient id="Безымянный_градиент_400" cx="23.65" cy="30.44" r="34.87" gradientUnits="userSpaceOnUse"><stop offset="0.01" stop-color="#7767aa"/><stop offset="0.11" stop-color="#7565a9"/><stop offset="0.2" stop-color="#594894"/><stop offset="0.29" stop-color="#443284"/><stop offset="0.4" stop-color="#352278"/><stop offset="0.51" stop-color="#2c1971"/><stop offset="0.67" stop-color="#29166f"/></radialGradient><radialGradient id="Безымянный_градиент_534" cx="50.2" cy="25.87" r="31.59" gradientUnits="userSpaceOnUse"><stop offset="0.59" stop-color="#2eb6e9"/><stop offset="0.89" stop-color="#b4dbf5"/></radialGradient></defs><title>Ресурс 12</title><g id="Слой_2" data-name="Слой 2"><g id="Меню"><path class="cls-1" d="M47.56,24.2s-1,.89-2.21,1.8c-.78.59-1.76,1.23-2.21,1.52-1.08.7-3.42,1.8-4.56,2.35s-3.25,1.39-4.29,1.8-3.4,1.18-4.56,1.52-3.2.76-4.29,1-3.62.6-4.84.69a54.81,54.81,0,0,1-6.5.14,32.59,32.59,0,0,1-4.7-.83,18.61,18.61,0,0,1-4.15-1.8,15.8,15.8,0,0,1-3.59-3.59A10.73,10.73,0,0,1,.55,25.58a16.75,16.75,0,0,1,.14-4.15,24.64,24.64,0,0,1,2.63-6.22A42.24,42.24,0,0,1,9.12,8.3a45.84,45.84,0,0,1,7.05-4.84,39.35,39.35,0,0,1,6.08-2.35,40.06,40.06,0,0,1,6.08-1,36.29,36.29,0,0,1,5.95.28A25.94,25.94,0,0,1,39.4,2.08a27.49,27.49,0,0,1,3.87,2.49,13.65,13.65,0,0,1,2.49,2.77,14,14,0,0,1,1,2.07,10.12,10.12,0,0,1,.41,1.52S45.67,9,45.07,8.44s-1.07-1-1.8-1.66A13.38,13.38,0,0,0,41.2,5.26a19.36,19.36,0,0,0-5-2.07A23.88,23.88,0,0,0,31,3a38.09,38.09,0,0,0-6.64,1.38A34.72,34.72,0,0,0,18.8,7.06a37.49,37.49,0,0,0-4.15,3.32,42.29,42.29,0,0,0-4,4.56,29.76,29.76,0,0,0-2.21,3.59,19.44,19.44,0,0,0-1,2.77A13,13,0,0,0,7.32,25a8.41,8.41,0,0,0,1,2.63,10.52,10.52,0,0,0,2.35,2.21,21.76,21.76,0,0,0,5.67,1.94,42.83,42.83,0,0,0,8.43.14c1.47-.16,5.81-1,5.81-1l5.39-1.38,4.15-1.52S43,27,43.83,26.55C44.88,26,47.56,24.2,47.56,24.2Z"/><path class="cls-2" d="M22.46,30.35s-1.39-2.27-1.8-3a48.67,48.67,0,0,1-2.07-4.84,28.19,28.19,0,0,1-1.11-4.15,26.09,26.09,0,0,1-.14-4.84,13.51,13.51,0,0,1,.76-3.25,6.62,6.62,0,0,1,1.31-1.73,6.31,6.31,0,0,1,1.38-.83,8.83,8.83,0,0,1,1.94-.41,12,12,0,0,1,2.07.14c.53.1,2.07.55,2.07.55s1.65.45,2.21.55a16.59,16.59,0,0,0,2.28.21,13,13,0,0,0,2-.21c.59-.12,1.84-.44,2.42-.62s2.35-.83,2.35-.83-.62,1.08-.83,1.38a14.88,14.88,0,0,1-1.45,1.45,16.09,16.09,0,0,1-1.66.83,10,10,0,0,1-2,.35,24,24,0,0,1-2.63-.14c-.69-.06-2.14-.19-2.83-.21a10,10,0,0,0-2.77.14,3,3,0,0,0-1,.69,7.76,7.76,0,0,0-1,1.8,21.28,21.28,0,0,0-.69,3.18,36,36,0,0,0-.28,4.56c0,1,.39,2.91.55,3.87C21.86,26.31,22.46,30.35,22.46,30.35Z"/><path class="cls-3" d="M20,41.07l3.73-3.18c.93-.79,2.83-2.35,3.73-3.18.57-.53,1.67-1.65,2.21-2.21s1.9-1.94,2.49-2.63c.87-1,2.44-3.18,3.18-4.29a46.32,46.32,0,0,0,2.49-4.29,34.2,34.2,0,0,0,1.8-4.84c.13-.51.33-1.55.41-2.07a18.92,18.92,0,0,0,.14-2.21,11.55,11.55,0,0,0-.14-1.8c-.09-.43-.55-1.66-.55-1.66s-.72.63-1,.83c-.4.32-1.23,1-1.66,1.24a14.33,14.33,0,0,1-1.66,1,7.08,7.08,0,0,1-1.38.41,10.21,10.21,0,0,1-1.52.14c-.48,0-1.56-.19-2.07-.28s-1.24-.23-1.66-.28a8.89,8.89,0,0,0-1.8,0,5.71,5.71,0,0,0-1.24.28,3.46,3.46,0,0,0-.83.55,3.35,3.35,0,0,0-.55,1.11,5.3,5.3,0,0,0-.14,1.11,11,11,0,0,0,.28,1.8A19.9,19.9,0,0,0,25,18.67c.12.28.55,1.11.55,1.11a23.94,23.94,0,0,1,.14-2.49,4.79,4.79,0,0,1,.41-1.38A6.25,6.25,0,0,1,27,14.66a1.43,1.43,0,0,1,1.11-.41,5.92,5.92,0,0,1,1.8.28c.41.15,1.13.51,1.52.69a8.06,8.06,0,0,0,1.24.55,7.51,7.51,0,0,0,1.24.14c.52,0,2.07-.28,2.07-.28l-.83,2.21-1,2.21-1.66,3.18-1.8,2.9-1.52,2.35-1.94,2.77L25,34.57l-1.38,2.07Z"/><path class="cls-4" d="M26.82,31.12s.88-1.43,1.11-1.94.65-1.7.83-2.21c.11-.31.19-.79.28-1.11a9.22,9.22,0,0,0,.14-1.52,5.27,5.27,0,0,0-.28-1.94,2.38,2.38,0,0,0-1.11-.83,2.44,2.44,0,0,0-1.24-.14,3.58,3.58,0,0,0-1,.55,6.31,6.31,0,0,0-.83,1.11,12,12,0,0,0-.55,1.24,11.58,11.58,0,0,0-.41,1.24,17.4,17.4,0,0,0-.28,2.21c0,.28,0,1.11,0,1.11s.51-1.35.69-1.8.39-.95.55-1.24a7.63,7.63,0,0,1,.69-1,2.58,2.58,0,0,1,.69-.55.78.78,0,0,1,.41,0,1.11,1.11,0,0,1,.41.41,4.35,4.35,0,0,1,.28,1.38,22.74,22.74,0,0,1,0,2.35C27.18,29.15,26.82,31.12,26.82,31.12Z"/><polygon class="cls-5" points="0.14 31.39 5.8 31.39 5.8 29.59 4.14 29.59 4.7 26 5.53 20.33 2.07 20.33 1.79 22.13 3.18 22.13 2.35 29.59 0.27 29.59 0.14 31.39"/><path class="cls-5" d="M7.6,31.39h6.64l.07-1.87H10.44l1.31-1.31L13,27c.36-.36.77-.74,1-1a8.38,8.38,0,0,0,.76-1,4.85,4.85,0,0,0,.41-1,7.26,7.26,0,0,0,.14-1.66A3.56,3.56,0,0,0,15,21.23a3,3,0,0,0-.83-.83,3.53,3.53,0,0,0-1-.28,6.38,6.38,0,0,0-1.52,0,4.57,4.57,0,0,0-1.11.41,4.59,4.59,0,0,0-1,1A8.43,8.43,0,0,0,9,22.68L8.64,24H10.3a9.2,9.2,0,0,1,.48-1.18,2.1,2.1,0,0,1,.28-.41,2.08,2.08,0,0,1,.48-.35,1.84,1.84,0,0,1,.83-.14,1.37,1.37,0,0,1,.76.48,2.88,2.88,0,0,1,.21,1.18,2.58,2.58,0,0,1-.21.9,6.89,6.89,0,0,1-1,1.24c-.31.32-1,.89-1.31,1.18s-.82.73-1.11,1-.93.72-1.24,1l-.69.55Z"/></g></g></svg>