<svg xmlns="http://www.w3.org/2000/svg" viewBox="0 0 57 57"><defs><style>.cls-1{fill:#0085bd;}.cls-2{fill:none;stroke:#fff;stroke-linecap:round;stroke-linejoin:round;stroke-width:2px;}</style></defs><title>Ресурс 7</title><g id="Слой_2" data-name="Слой 2"><g id="Преимущества"><rect class="cls-1" width="57" height="57"/><rect class="cls-2" x="10.41" y="16.42" width="37.95" height="24.15" rx="0.14" ry="0.14"/><circle class="cls-2" cx="29.39" cy="28.5" r="5.18"/><path class="cls-2" d="M17,16.42a5.58,5.58,0,0,1-1.09,5.47l0,0A5.58,5.58,0,0,1,10.41,23"/><path class="cls-2" d="M41.77,16.42a5.58,5.58,0,0,0,1.09,5.47l0,0A5.58,5.58,0,0,0,48.36,23"/><path class="cls-2" d="M17,40.57a5.58,5.58,0,0,0-1.09-5.47l0,0A5.58,5.58,0,0,0,10.41,34"/><path class="cls-2" d="M41.77,40.57a5.58,5.58,0,0,1,1.09-5.47l0,0A5.58,5.58,0,0,1,48.36,34"/></g></g></svg>