<svg xmlns="http://www.w3.org/2000/svg" xmlns:xlink="http://www.w3.org/1999/xlink" viewBox="0 0 14 14"><defs><style>.cls-1,.cls-2,.cls-3,.cls-4{fill:none;stroke-linecap:round;stroke-linejoin:round;}.cls-1{stroke:url(#Безымянный_градиент_9);}.cls-2{stroke:url(#Безымянный_градиент_9-2);}.cls-3{stroke:url(#Безымянный_градиент_9-3);}.cls-4{stroke:url(#Безымянный_градиент_9-4);}</style><radialGradient id="Безымянный_градиент_9" cx="1.98" cy="8.48" r="2.29" gradientUnits="userSpaceOnUse"><stop offset="0.01" stop-color="#c7e7f5"/><stop offset="0.23" stop-color="#9dd4ea"/><stop offset="0.75" stop-color="#35a5cf"/><stop offset="1" stop-color="#008dc1"/></radialGradient><radialGradient id="Безымянный_градиент_9-2" cx="12.02" cy="8.48" r="2.29" xlink:href="#Безымянный_градиент_9"/><radialGradient id="Безымянный_градиент_9-3" cx="7" cy="3.5" r="4.8" xlink:href="#Безымянный_градиент_9"/><radialGradient id="Безымянный_градиент_9-4" cx="8.88" cy="12.01" r="2.88" xlink:href="#Безымянный_градиент_9"/></defs><title>Ресурс 6</title><g id="Слой_2" data-name="Слой 2"><g id="Верхняя_инормация" data-name="Верхняя инормация"><g id="_1" data-name="1"><path class="cls-1" d="M3.45,10.55H2.27A1.77,1.77,0,0,1,.5,8.77V8.18A1.77,1.77,0,0,1,2.27,6.41H3.45Z"/><path class="cls-2" d="M11.73,10.55H10.55V6.41h1.18A1.77,1.77,0,0,1,13.5,8.18v.59A1.77,1.77,0,0,1,11.73,10.55Z"/><path class="cls-3" d="M1.73,6.5a4.33,4.33,0,0,1,0-.68,5.32,5.32,0,0,1,10.64,0,4.33,4.33,0,0,1,0,.68"/><path class="cls-4" d="M7,13.5a1.18,1.18,0,1,1,1.18-1.18A1.16,1.16,0,0,1,7,13.5c3.12,0,4.41-1.62,4.95-3"/></g></g></g></svg>